<svg viewBox="0 0 87.4819 54.7631" xmlns="http://www.w3.org/2000/svg" xmlns:xlink="http://www.w3.org/1999/xlink" width="87.481934" height="54.763062" fill="none">
	<rect id="add_shopping_cart" width="87.481812" height="54.763073" x="0.000000" y="0.000000" fill="rgb(255,255,255)" fill-opacity="0" />
	<path id="矢量 16" d="M40.0958 20.5362L47.3859 20.5362L47.3859 13.6908L58.3212 13.6908L58.3212 9.12718L47.3859 9.12718L47.3859 2.2818L40.0958 2.2818L40.0958 9.12718L29.1605 9.12718L29.1605 13.6908L40.0958 13.6908L40.0958 20.5362ZM25.5155 41.0723C21.5059 41.0723 18.2618 43.1259 18.2618 45.6359C18.2618 48.1459 21.5059 50.1995 25.5155 50.1995C29.5251 50.1995 32.8056 48.1459 32.8056 45.6359C32.8056 43.1259 29.5251 41.0723 25.5155 41.0723ZM61.9662 41.0723C57.9566 41.0723 54.7125 43.1259 54.7125 45.6359C54.7125 48.1459 57.9566 50.1995 61.9662 50.1995C65.9758 50.1995 69.2564 48.1459 69.2564 45.6359C69.2564 43.1259 65.9758 41.0723 61.9662 41.0723ZM26.1351 33.6565L26.2445 33.3827L29.5251 29.6633L56.6809 29.6633C59.4147 29.6633 61.8204 28.7278 63.0598 27.3131L77.1297 11.3177L70.7873 9.12718L70.7509 9.12718L66.7413 13.6908L56.6809 25.0997L31.0924 25.0997L30.6186 24.4837L22.4536 13.6908L18.9908 9.12718L15.5644 4.56359L3.64502 4.56359L3.64502 9.12718L10.9352 9.12718L24.0574 26.446L19.1366 32.0364C18.5534 32.6753 18.2253 33.4283 18.2253 34.2269C18.2253 36.7369 21.5059 38.7905 25.5155 38.7905L69.2564 38.7905L69.2564 34.2269L27.0464 34.2269C26.5725 34.2269 26.1351 33.9759 26.1351 33.6565Z" fill="rgb(230,159,138)" fill-rule="evenodd" />
</svg>
